<?xml version="1.0" standalone="no"?>
<!DOCTYPE svg PUBLIC "-//W3C//DTD SVG 20010904//EN"
 "http://www.w3.org/TR/2001/REC-SVG-20010904/DTD/svg10.dtd">
<svg version="1.0" xmlns="http://www.w3.org/2000/svg"
 width="1453.000000pt" height="347.000000pt" viewBox="0 0 1453.000000 347.000000"
 preserveAspectRatio="xMidYMid meet">

<g transform="translate(0.000000,347.000000) scale(0.100000,-0.100000)"
fill="#000000" stroke="none">
<path d="M4210 3364 c-23 -27 -1 -67 45 -82 22 -7 48 -21 58 -30 31 -28 67
-109 67 -150 0 -36 -5 -43 -52 -78 -65 -49 -110 -107 -139 -181 -33 -83 -33
-251 -1 -338 32 -87 86 -159 149 -201 47 -31 67 -38 124 -42 91 -6 139 13 212
83 31 30 63 55 70 55 21 0 45 -31 61 -78 18 -50 173 -360 245 -490 28 -50 51
-96 51 -102 0 -5 -24 -47 -53 -92 -184 -286 -447 -777 -534 -998 -87 -220
-123 -389 -103 -485 6 -29 17 -58 24 -64 11 -9 98 127 426 664 227 371 414
674 416 673 1 -2 192 -309 423 -683 232 -374 425 -681 430 -683 15 -5 31 59
31 128 0 226 -216 710 -573 1285 -55 88 -109 176 -120 195 l-20 36 163 322
c112 222 172 330 192 348 l31 25 44 -46 c108 -114 262 -118 381 -11 184 167
198 498 27 654 -57 52 -106 72 -178 72 -107 0 -228 -79 -284 -187 -17 -32 -59
-141 -94 -243 -69 -201 -152 -377 -222 -468 -25 -31 -86 -97 -136 -145 l-92
-88 -39 31 c-188 149 -285 301 -379 597 -62 195 -144 365 -200 416 -52 46
-105 73 -163 82 l-46 7 -6 50 c-14 104 -74 211 -137 243 -37 19 -83 19 -99 -1z
m348 -450 c225 -112 165 -524 -77 -524 -140 0 -239 129 -229 299 5 87 27 138
81 189 67 64 144 77 225 36z m1631 6 c205 -104 151 -477 -76 -525 -49 -10
-132 18 -170 57 -99 103 -102 295 -7 407 20 23 52 50 73 61 48 26 130 26 180
0z"/>
<path d="M7630 2605 c-107 -7 -196 -13 -197 -14 -2 0 -3 -410 -3 -911 l0 -910
210 0 210 0 0 270 0 270 89 0 c107 0 213 19 339 61 204 68 306 183 364 410 17
71 20 102 15 204 -7 142 -23 212 -77 320 -70 144 -192 235 -385 286 -103 27
-299 32 -565 14z m416 -371 c116 -33 183 -116 192 -233 9 -127 -46 -241 -139
-288 -51 -27 -152 -44 -203 -36 l-34 5 -4 277 c-2 152 -2 279 0 284 6 13 133
7 188 -9z"/>
<path d="M9059 2488 c-39 -73 -78 -143 -85 -155 -8 -12 -14 -25 -14 -27 0 -3
40 -7 88 -8 l88 -3 -238 -755 c-131 -415 -238 -760 -238 -766 0 -14 402 -6
411 7 3 5 27 86 53 179 l49 170 270 -2 270 -3 50 -177 51 -178 218 0 c168 0
218 3 218 13 0 6 -127 423 -282 925 l-282 912 -277 0 -278 0 -72 -132z m471
-698 c44 -162 78 -295 76 -297 -2 -2 -77 -2 -168 -1 l-165 3 85 297 c47 164
87 296 89 294 2 -1 39 -135 83 -296z"/>
<path d="M11515 2615 c-5 -2 -76 -9 -157 -15 l-148 -13 0 -908 0 -909 210 0
210 0 1 293 c1 160 4 350 8 420 l6 128 236 -418 237 -418 223 4 c123 2 225 5
227 6 2 2 -94 169 -213 371 l-216 368 28 20 c67 47 151 144 186 216 49 101 67
176 67 285 0 160 -43 271 -144 370 -137 134 -362 206 -639 204 -62 0 -116 -2
-122 -4z m346 -391 c69 -38 105 -84 124 -162 29 -111 0 -200 -94 -292 -56 -54
-201 -140 -237 -140 -12 0 -14 54 -14 316 l0 317 84 -5 c67 -5 95 -11 137 -34z"/>
<path d="M12760 1695 l0 -925 545 0 545 0 0 180 0 180 -335 0 -335 0 0 210 0
210 255 0 254 0 3 181 c2 99 1 183 -1 185 -2 2 -118 4 -258 4 l-253 0 0 165 0
165 277 2 276 3 48 170 c27 94 49 176 49 183 0 9 -114 12 -535 12 l-535 0 0
-925z"/>
<path d="M263 2068 c4 -298 7 -712 7 -920 l0 -378 554 0 554 0 7 340 c4 188 5
343 2 346 -2 3 -82 -30 -176 -72 l-171 -78 0 -83 0 -83 -178 0 -179 0 -6 332
c-4 182 -7 513 -7 735 l0 403 -207 0 -206 0 6 -542z"/>
<path d="M1934 2503 c-31 -60 -69 -132 -84 -160 l-28 -53 90 0 c88 0 89 0 83
-22 -4 -13 -112 -352 -241 -754 -129 -401 -234 -733 -234 -737 0 -4 94 -7 208
-7 l209 0 48 173 c26 94 50 178 52 185 4 9 69 12 277 12 l272 0 44 -152 c23
-84 47 -168 52 -186 l9 -32 219 0 c121 0 220 1 220 3 0 1 -130 414 -289 917
l-289 915 -280 3 -281 2 -57 -107z m461 -688 c42 -154 78 -288 81 -297 5 -17
-8 -18 -166 -18 -158 0 -171 1 -166 18 3 9 42 144 87 300 45 155 83 281 85
280 1 -2 36 -129 79 -283z"/>
<path d="M10453 1963 c4 -355 7 -769 7 -920 l0 -273 211 0 c188 0 210 2 205
16 -3 9 -6 423 -6 920 l0 904 -212 0 -211 0 6 -647z"/>
</g>
</svg>
